<?xml version="1.0" encoding="UTF-8"?>
<svg width="1200pt" height="1200pt" version="1.1" viewBox="0 0 1200 1200" xmlns="http://www.w3.org/2000/svg">
 <path fill="none" stroke="black" stroke-width="8" d="m1125 656.25h-56.25v-112.5h56.25c10.352 0 18.75-8.3984 18.75-18.75s-8.3984-18.75-18.75-18.75h-75c-10.352 0-18.75 8.3984-18.75 18.75v56.25h-37.5v-281.25c0-10.352-8.3984-18.75-18.75-18.75h-750c-10.352 0-18.75 8.3984-18.75 18.75v281.25h-37.5v-56.25c0-10.352-8.3984-18.75-18.75-18.75h-75c-10.352 0-18.75 8.3984-18.75 18.75s8.3984 18.75 18.75 18.75h56.25v112.5h-56.25c-10.352 0-18.75 8.3984-18.75 18.75s8.3984 18.75 18.75 18.75h75c10.352 0 18.75-8.3984 18.75-18.75v-56.25h37.5v281.25c0 10.352 8.3984 18.75 18.75 18.75h750c10.352 0 18.75-8.3984 18.75-18.75v-281.25h37.5v56.25c0 10.352 8.3984 18.75 18.75 18.75h75c10.352 0 18.75-8.3984 18.75-18.75s-8.3984-18.75-18.75-18.75zm-843.75 225h-37.5v-562.5h37.5zm112.5-525c-10.352 0-18.75 8.3984-18.75 18.75s8.3984 18.75 18.75 18.75v412.5c-10.352 0-18.75 8.3984-18.75 18.75s8.3984 18.75 18.75 18.75v37.5h-75v-562.5h75zm112.5 0c-10.352 0-18.75 8.3984-18.75 18.75s8.3984 18.75 18.75 18.75v412.5c-10.352 0-18.75 8.3984-18.75 18.75s8.3984 18.75 18.75 18.75v37.5h-75v-37.5c10.352 0 18.75-8.3984 18.75-18.75s-8.3984-18.75-18.75-18.75v-412.5c10.352 0 18.75-8.3984 18.75-18.75s-8.3984-18.75-18.75-18.75v-37.5h75zm150 0c-10.352 0-18.75 8.3984-18.75 18.75s8.3984 18.75 18.75 18.75v412.5c-10.352 0-18.75 8.3984-18.75 18.75s8.3984 18.75 18.75 18.75v37.5h-112.5v-37.5c10.352 0 18.75-8.3984 18.75-18.75s-8.3984-18.75-18.75-18.75v-412.5c10.352 0 18.75-8.3984 18.75-18.75s-8.3984-18.75-18.75-18.75v-37.5h112.5zm112.5 0c-10.352 0-18.75 8.3984-18.75 18.75s8.3984 18.75 18.75 18.75v412.5c-10.352 0-18.75 8.3984-18.75 18.75s8.3984 18.75 18.75 18.75v37.5h-75v-37.5c10.352 0 18.75-8.3984 18.75-18.75s-8.3984-18.75-18.75-18.75v-412.5c10.352 0 18.75-8.3984 18.75-18.75s-8.3984-18.75-18.75-18.75v-37.5h75zm112.5 525h-75v-37.5c10.352 0 18.75-8.3984 18.75-18.75s-8.3984-18.75-18.75-18.75v-412.5c10.352 0 18.75-8.3984 18.75-18.75s-8.3984-18.75-18.75-18.75v-37.5h75zm75 0h-37.5v-562.5h37.5z"/>
</svg>
