<?xml version="1.0" encoding="UTF-8"?>
<svg width="1200pt" height="1200pt" version="1.1" viewBox="0 0 1200 1200" xmlns="http://www.w3.org/2000/svg">
 <path fill="none" stroke="black" stroke-width="8" d="m600 156c137.9 0 264.05 82.77 356.77 167.48 46.148 42.164 83.531 84.363 109.38 116.03 12.918 15.824 22.934 28.996 29.703 38.188 1.7344 2.3555 3.2539 4.4453 4.5547 6.2539l-446.49 452.34c-2.8984-3.2773-6.0977-6.2852-9.543-8.9883v-0.003906l219.41-219.41-8.4883-8.4844-246.92-246.92-8.4883-8.4844-263.89 263.89 8.4844 8.4883 211.02 211.02h0.003906c-3.4062 2.6797-6.5586 5.6562-9.4258 8.8945l-446.49-452.34c1.3047-1.8086 2.8242-3.8984 4.5586-6.2539 6.7695-9.1914 16.785-22.363 29.703-38.188 25.844-31.668 63.23-73.867 109.38-116.03 92.723-84.711 218.87-167.48 356.77-167.48zm-34.262 764.66-212.77-212.77 8.4883-8.4844 229.95-229.95 8.4844-8.4883 246.92 246.92-8.4844 8.4883-204.21 204.21c-10.152-5.4766-21.773-8.5859-34.121-8.5859-12.406 0-24.074 3.1406-34.262 8.6602zm-11.207 24.191c0.22266-0.26172 0.44922-0.51953 0.67969-0.77734-0.23047 0.25781-0.45703 0.51562-0.67969 0.77734zm-6.9883 10.004-8.7227-8.8359-454.82-460.78s231.02-341.24 516-341.24 516 341.24 516 341.24l-454.82 460.78-8.7227 8.8359c4.8047 8.6289 7.543 18.566 7.543 29.145 0 33.137-26.863 60-60 60s-60-26.863-60-60c0-10.578 2.7383-20.516 7.543-29.145zm27.699-12.289-3.9883 2.9883c-11.711 8.7734-19.254 22.727-19.254 38.445 0 26.508 21.492 48 48 48s48-21.492 48-48c0-15.762-7.5859-29.746-19.352-38.52l-4-2.9805-4.5078-2.0859c-6.1094-2.8281-12.922-4.4141-20.141-4.4141-7.2617 0-14.117 1.6055-20.258 4.4688zm-2.3594-419.4 27.008-27.012 27.012 27.012-27.012 27.012zm-16.973 0 35.496-35.496 8.4844-8.4883 43.984 43.984-35.496 35.496-8.4883 8.4844zm-167.75 184.72 27.012-27.008 27.012 27.008-27.012 27.012zm-16.973 0 8.4883-8.4844 35.496-35.496 43.98 43.98-8.4844 8.4883-35.496 35.496zm413.43-27.008-27.012 27.008 27.012 27.012 27.012-27.012zm-35.496 18.523-8.4844 8.4844 8.4844 8.4883 35.496 35.496 35.496-35.496 8.4844-8.4883-43.98-43.98zm-122.59-18.43c14.781 14.715 14.832 38.621 0.12109 53.402-14.715 14.777-38.621 14.832-53.402 0.11719-14.777-14.715-14.832-38.621-0.11719-53.398 14.715-14.781 38.621-14.832 53.398-0.12109zm8.4688-8.5039c19.477 19.391 19.543 50.898 0.15625 70.371-19.391 19.477-50.898 19.547-70.371 0.15625-19.477-19.391-19.547-50.895-0.15625-70.371 19.391-19.477 50.895-19.543 70.371-0.15625z"/>
</svg>
