<?xml version="1.0" encoding="UTF-8"?>
<svg width="1200pt" height="1200pt" version="1.1" viewBox="0 0 1200 1200" xmlns="http://www.w3.org/2000/svg">
 <path d="m269.14 543.5-7.3086-14.461c-7.4648 3.7695-14.27 8.6758-20.219 14.594l11.41 11.496c4.7539-4.7031 10.164-8.6172 16.117-11.629z"/>
 <path d="m269.06 656.46c-5.9414-3.0117-11.352-6.9258-16.094-11.641l-11.438 11.473c5.9414 5.9141 12.73 10.836 20.207 14.617z"/>
 <path d="m241.3 571.16-14.41-7.3906c-3.8281 7.4648-6.4336 15.445-7.7539 23.723l15.996 2.5312c1.0547-6.5859 3.1328-12.934 6.168-18.863z"/>
 <path d="m219.12 612.42c1.2969 8.2812 3.8984 16.262 7.7148 23.734l14.426-7.3789c-3.0352-5.9414-5.1016-12.289-6.1328-18.863z"/>
 <path d="m608.1 249h-548.1v702h1080v-702zm-16.203 413.7c-31.055-3.9844-55.137-30.574-55.137-62.699s24.086-58.715 55.141-62.699zm16.203-125.4c31.055 3.9961 55.141 30.574 55.141 62.699s-24.086 58.715-55.141 62.699zm-302.4 99.023v-99.043c31.055 3.9844 55.141 30.602 55.141 62.723 0 32.125-24.086 58.738-55.141 62.723zm-16.199-115.77v170.79l-207.9 0.003907v-182.71h207.9zm-207.9 187h224.1v-28.523c40.008-4.0664 71.34-37.957 71.34-79.031s-31.332-74.965-71.34-79.031v-28.523h-224.1v-152.38h189.42c78.73 63.949 123.78 158.38 123.78 259.95 0 101.55-45.035 195.97-123.76 259.92h-189.44zm0 221.84v-53.27h195.12c81.77-64.262 134.28-164.06 134.28-276.12 0-112.08-52.523-211.88-134.3-276.14l-195.1 0.003907v-53.266h510.3v250.37c-40.012 4.0664-71.344 37.969-71.344 79.031s31.332 74.965 71.34 79.031v250.37zm812.7-365.71v99.043c-31.055-3.9844-55.141-30.602-55.141-62.723 0-32.125 24.086-58.738 55.141-62.723zm16.199 115.77v-170.79l207.9-0.003906v182.71h-207.9zm207.9-187h-224.1v28.523c-40.008 4.0664-71.34 37.957-71.34 79.031 0 41.062 31.332 74.965 71.34 79.031v28.523h224.1v152.38l-189.42 0.003906c-78.734-63.949-123.78-158.38-123.78-259.95 0-101.55 45.035-195.97 123.76-259.92h189.44zm-195.12-168.58c-81.77 64.262-134.28 164.05-134.28 276.12 0 112.08 52.523 211.88 134.3 276.14h195.09v53.258l-510.3-0.003906v-250.37c40.008-4.0664 71.34-37.957 71.34-79.031s-31.332-74.965-71.34-79.031v-250.37h510.3v53.281z"/>
 <path d="m930.86 656.5 7.3086 14.461c7.4648-3.7695 14.27-8.6758 20.219-14.594l-11.41-11.496c-4.7539 4.7188-10.164 8.6289-16.117 11.629z"/>
 <path d="m980.88 587.59c-1.2969-8.2812-3.8984-16.262-7.7148-23.734l-14.426 7.3789c3.0352 5.9414 5.1016 12.289 6.1328 18.863z"/>
 <path d="m958.7 628.85 14.41 7.3906c3.8281-7.4648 6.4336-15.445 7.7539-23.723l-15.996-2.5312c-1.0547 6.5742-3.1328 12.922-6.168 18.863z"/>
 <path d="m930.94 543.55c5.9414 3.0117 11.352 6.9258 16.094 11.641l11.438-11.473c-5.9414-5.9141-12.742-10.836-20.207-14.617z"/>
</svg>
