<?xml version="1.0" encoding="UTF-8"?>
<svg width="1200pt" height="1200pt" version="1.1" viewBox="0 0 1200 1200" xmlns="http://www.w3.org/2000/svg">
 <path d="m1008.7 232.37h-817.32c-74.594 0-135.28 57.73-135.28 128.69v477.9c0 70.957 60.684 128.69 135.28 128.69h817.33c74.594 0 135.28-57.73 135.28-128.69v-477.9c-0.011719-70.953-60.695-128.69-135.29-128.69zm-914.65 251.38h131.58l-0.035157 27.996h-82.906c-0.39453 0-0.78125 0.035157-1.1641 0.058594-0.38281-0.023437-0.78125-0.058594-1.1641-0.058594-10.477 0-18.973 8.0742-18.973 18.047v140.43c0 9.9727 8.4961 18.047 18.973 18.047 0.32422 0 0.64844-0.035156 0.97266-0.046874 0.32422 0.011718 0.64844 0.046874 0.97266 0.046874h83.062l-0.046875 37.391-131.27 0.003906zm131.45 98.211h-66.18v-34.117h66.227zm-66.18 36.094h66.133l-0.046875 34.117h-66.098v-34.117zm104.25-134.3h176.44v241.91h-176.76zm214.38-215.28h244.16v663.07h-244.16zm282.12 215.28h186.49l-0.78125 241.91-185.71 0.003906zm224 134.3h56.641v34.117h-56.746zm56.641-36.094h-56.52l0.10938-34.117h56.41zm-56.867 106.31h72.434c0.57422 0 1.1406-0.035157 1.7031-0.085938 0.5625 0.046875 1.1289 0.085938 1.7031 0.085938 10.477 0 18.973-8.0742 18.973-18.047v-140.43c0-9.9727-8.4961-18.047-18.973-18.047-0.22656 0-0.44531 0.023437-0.67188 0.035156-0.22656-0.011719-0.44531-0.035156-0.67187-0.035156h-73.934l0.085937-27.996h121.52v241.91h-122.29zm122.18-327.21v86.594h-345.96v-179.18h248.64c53.664 0 97.32 41.531 97.32 92.59zm-914.65-92.59h248.64v179.18h-345.97v-86.594c0-51.059 43.656-92.59 97.332-92.59zm-97.332 570.48v-77.195h345.96v169.79h-248.64c-53.664-0.003906-97.32-41.535-97.32-92.594zm914.65 92.59h-248.64v-169.79h345.96v77.195c0.011719 51.062-43.645 92.594-97.32 92.594z"/>
</svg>
