<?xml version="1.0" encoding="UTF-8"?>
<svg width="1200pt" height="1200pt" version="1.1" viewBox="0 0 1200 1200" xmlns="http://www.w3.org/2000/svg">
 <path d="m196.8 600c0 5.9648-4.8359 10.801-10.801 10.801s-10.801-4.8359-10.801-10.801 4.8359-10.801 10.801-10.801 10.801 4.8359 10.801 10.801z"/>
 <path d="m1024.8 600c0 5.9648-4.8359 10.801-10.801 10.801s-10.801-4.8359-10.801-10.801 4.8359-10.801 10.801-10.801 10.801 4.8359 10.801 10.801z"/>
 <path fill="none" stroke="black" stroke-width="8" d="m1071.8 249h-1011.8v702.01h1011.8l68.211 0.003907v-702.01zm46.605 47.293c-11.34-5.1953-20.496-14.352-25.691-25.691h25.691zm-526.5 292.97c-3.2656 2.4609-5.3984 6.3359-5.3984 10.738s2.1367 8.2812 5.3984 10.738v103.75c-59.531-4.1758-106.71-53.914-106.71-114.49 0-60.574 47.172-110.32 106.71-114.49zm16.203 21.477c3.2656-2.4609 5.3984-6.3359 5.3984-10.738s-2.1367-8.2812-5.3984-10.738v-103.75c59.531 4.1758 106.71 53.914 106.71 114.49 0 60.574-47.172 110.32-106.71 114.49zm-500.81-340.14c-5.1953 11.34-14.352 20.496-25.691 25.691v-25.691zm141.71 225.96c39.324 22.703 65.809 65.172 65.809 113.84s-26.484 91.141-65.809 113.84zm-16.199-28.066v328.2l-151.2 0.003906v-99.492h61.199v-194.4h-61.199v-78.695h151.2zm-151.2 50.508h45v162h-45zm0 384.71c11.34 5.1953 20.496 14.352 25.691 25.691h-25.691zm43.09 25.691c-6.7695-20.293-22.801-36.324-43.094-43.094v-73.414h167.4v-69.949l8.1016-4.6797c45.59-26.328 73.906-75.324 73.906-127.87s-28.32-101.54-73.906-127.87l-8.1016-4.6797v-69.949h-167.39v-94.211c20.293-6.7695 36.324-22.801 43.094-43.094h467.21v198.66c-68.488 4.2148-122.92 61.238-122.92 130.75s54.434 126.53 122.91 130.74v198.66zm968.02 0c5.1953-11.34 14.352-20.496 25.691-25.691v25.691zm-141.71-225.96c-39.324-22.703-65.809-65.172-65.809-113.84s26.484-91.141 65.809-113.84zm16.199 28.066v-328.21h151.2v99.5h-61.199v194.4h61.199v78.695h-151.2zm151.2-50.508h-45v-162h45zm0-293.9h-167.4v69.949l-8.1016 4.6797c-45.59 26.328-73.906 75.324-73.906 127.87s28.32 101.54 73.906 127.87l8.1016 4.6797v69.949h167.4v94.211c-20.293 6.7695-36.324 22.801-43.094 43.094l-467.2-0.003906v-198.66c68.484-4.1992 122.91-61.223 122.91-130.74s-54.434-126.54-122.91-130.74v-198.66h467.21c6.7695 20.293 22.801 36.324 43.094 43.094z"/>
</svg>
