<?xml version="1.0" encoding="UTF-8"?>
<svg width="1200pt" height="1200pt" version="1.1" viewBox="0 0 1200 1200" xmlns="http://www.w3.org/2000/svg">
 <path fill="none" stroke="black" stroke-width="8" d="m1053.4 282h-906.74c-79.812 0-144.76 64.945-144.76 144.76v346.5c0 79.801 64.934 144.76 144.76 144.76h906.76c79.812 0 144.76-64.945 144.76-144.76l-0.003906-346.5c-0.011719-79.812-64.945-144.76-144.77-144.76zm34.43 350.48c-14.855-4.6914-25.598-18.445-25.598-34.754 0-16.188 10.754-30.035 25.598-34.754zm-496.8-34.895c-0.21484 0.78125-0.49219 1.5469-0.49219 2.3984 0 0.85156 0.27734 1.6211 0.49219 2.3984v72.395c-37.32-4.4766-66.371-36.277-66.371-74.797s29.051-70.309 66.371-74.785zm18 4.8086c0.21484-0.78125 0.49219-1.5469 0.49219-2.3984s-0.27734-1.6211-0.49219-2.3984v-72.383c37.332 4.4766 66.371 36.266 66.371 74.785 0 38.508-29.039 70.32-66.371 74.797zm-18-95.328c-47.281 4.5469-84.371 44.461-84.371 92.914 0 48.457 37.094 88.367 84.371 92.914v201.1h-152.28v-588h152.28zm18 185.83c47.281-4.5469 84.371-44.461 84.371-92.914 0-48.457-37.094-88.367-84.371-92.914v-201.07h154.08v588h-154.08zm-495-129.92c14.844 4.7266 25.598 18.574 25.598 34.754 0 16.309-10.727 30.059-25.598 34.754zm-88.129 210.28v-346.5c0-48.492 28.789-90.277 70.117-109.49v565.46c-41.316-19.203-70.117-60.988-70.117-109.48zm88.129 116.14v-238.4c24.996-5.1133 43.598-27 43.598-53.27 0-26.074-18.672-48.059-43.598-53.23v-233.9c10.391-2.9297 21.312-4.6094 32.629-4.6094h274.09v588h-274.09c-11.328 0.011719-22.238-1.6562-32.629-4.5859zm667.09 4.5977v-588h272.28c11.977 0 23.508 1.8125 34.43 5.0742v233.44c-24.91 5.1719-43.598 27.156-43.598 53.23 0 26.27 18.613 48.156 43.598 53.27v237.94c-10.922 3.2539-22.453 5.0625-34.43 5.0625h-272.28zm393.04-120.74c0 47.762-27.961 89.039-68.316 108.61v-563.73c40.355 19.57 68.316 60.828 68.316 108.61z"/>
 <path d="m230.52 632.98c-55.68 0-100.97 45.301-100.97 100.97 0 55.691 45.289 100.97 100.97 100.97 55.68 0 100.97-45.277 100.97-100.97 0.011719-55.668-45.289-100.97-100.97-100.97zm0 183.93c-45.758 0-82.969-37.223-82.969-82.969 0-45.742 37.223-82.969 82.969-82.969 45.742 0 82.969 37.223 82.969 82.969s-37.211 82.969-82.969 82.969z" fill-rule="evenodd"/>
 <path d="m238.44 733.95c0 4.3711-3.5469 7.918-7.9219 7.918s-7.918-3.5469-7.918-7.918c0-4.375 3.543-7.9219 7.918-7.9219s7.9219 3.5469 7.9219 7.9219z" fill-rule="evenodd"/>
 <path d="m230.52 559.3c55.68 0 100.97-45.289 100.97-100.97s-45.289-100.97-100.97-100.97c-55.68 0-100.97 45.289-100.97 100.97s45.301 100.97 100.97 100.97zm0-183.94c45.758 0 82.969 37.223 82.969 82.969 0 45.742-37.223 82.969-82.969 82.969-45.742 0-82.969-37.223-82.969-82.969 0-45.742 37.227-82.969 82.969-82.969z" fill-rule="evenodd"/>
 <path d="m238.45 458.32c0 4.3789-3.5508 7.9297-7.9336 7.9297-4.3789 0-7.9297-3.5508-7.9297-7.9297 0-4.3828 3.5508-7.9336 7.9297-7.9336 4.3828 0 7.9336 3.5508 7.9336 7.9336z" fill-rule="evenodd"/>
 <path d="m488.5 462.84c0 9.5508-7.7422 17.293-17.293 17.293s-17.293-7.7422-17.293-17.293c0-9.5508 7.7422-17.293 17.293-17.293s17.293 7.7422 17.293 17.293z" fill-rule="evenodd"/>
 <path d="m488.5 735.07c0 9.5508-7.7422 17.293-17.293 17.293s-17.293-7.7422-17.293-17.293c0-9.5469 7.7422-17.289 17.293-17.289s17.293 7.7422 17.293 17.289z" fill-rule="evenodd"/>
 <path d="m971.28 632.98c-55.68 0-100.98 45.301-100.98 100.97 0 55.691 45.301 100.97 100.98 100.97s100.97-45.277 100.97-100.97c-0.003906-55.668-45.289-100.97-100.97-100.97zm0 183.93c-45.758 0-82.98-37.223-82.98-82.969 0-45.742 37.234-82.969 82.98-82.969 45.742 0 82.969 37.223 82.969 82.969-0.003906 45.746-37.215 82.969-82.969 82.969z" fill-rule="evenodd"/>
 <path d="m979.2 733.95c0 4.3711-3.5469 7.918-7.918 7.918-4.375 0-7.9219-3.5469-7.9219-7.918 0-4.375 3.5469-7.9219 7.9219-7.9219 4.3711 0 7.918 3.5469 7.918 7.9219z" fill-rule="evenodd"/>
 <path d="m971.28 559.3c55.68 0 100.97-45.289 100.97-100.97-0.003906-55.68-45.289-100.97-100.97-100.97s-100.98 45.289-100.98 100.97 45.312 100.97 100.98 100.97zm0-183.94c45.758 0 82.969 37.223 82.969 82.969 0 45.742-37.223 82.969-82.969 82.969-45.742 0-82.98-37.223-82.98-82.969 0-45.742 37.234-82.969 82.98-82.969z" fill-rule="evenodd"/>
 <path d="m979.21 458.32c0 4.3789-3.5508 7.9297-7.9297 7.9297-4.3828 0-7.9336-3.5508-7.9336-7.9297 0-4.3828 3.5508-7.9336 7.9336-7.9336 4.3789 0 7.9297 3.5508 7.9297 7.9336z" fill-rule="evenodd"/>
 <path d="m747.91 462.84c0 9.5508-7.7383 17.293-17.289 17.293-9.5508 0-17.293-7.7422-17.293-17.293 0-9.5508 7.7422-17.293 17.293-17.293 9.5508 0 17.289 7.7422 17.289 17.293z" fill-rule="evenodd"/>
 <path d="m747.91 735.07c0 9.5508-7.7383 17.293-17.289 17.293-9.5508 0-17.293-7.7422-17.293-17.293 0-9.5469 7.7422-17.289 17.293-17.289 9.5508 0 17.289 7.7422 17.289 17.289z" fill-rule="evenodd"/>
</svg>
