<?xml version="1.0" encoding="UTF-8"?>
<svg width="1200pt" height="1200pt" version="1.1" viewBox="0 0 1200 1200" xmlns="http://www.w3.org/2000/svg">
 <path fill="none" stroke="black" stroke-width="8" d="m792 249.6h-732v702h1080v-702zm-710.4 679.2v-658.8h326.4v658.8zm342 0v-658.8h351.6v658.8zm694.8 0h-326.4v-658.8h326.4z"/>
 <path d="m994.8 579.6h16.801v40.801h-16.801z"/>
 <path d="m1002 729.6h8.3984v-69.602c30-3.6016 52.801-28.801 52.801-60s-22.801-56.398-52.801-60v-69.602h-8.3984c-72 0-129.6 57.602-129.6 129.6s58.801 129.6 129.6 129.6zm45.602-129.6c0 24-20.398 44.398-44.398 44.398-24.004 0-45.602-20.398-45.602-44.398s20.398-44.398 44.398-44.398 45.602 20.398 45.602 44.398zm-66 57.602-20.398 14.398c-25.199-14.398-42-42-42-70.801s15.602-56.398 42-70.801l20.398 14.398c-24 8.3984-40.801 31.199-40.801 57.602 0 26.402 18 46.801 40.801 55.203zm13.199-170.4v44.398l-31.199-21.602-4.8008 2.3984c-33.602 16.801-54 50.398-54 87.602 0 37.199 20.398 70.801 54 87.602l4.8008 2.3984 31.199-21.602v44.398c-58.801-3.5938-105.6-52.793-105.6-112.79s46.801-109.2 105.6-112.8z"/>
 <path d="m600 477.6c-62.398 0-114 50.398-114 112.8 0 62.398 50.398 114 114 114s114-50.398 114-114c0-62.402-51.602-112.8-114-112.8zm0 211.2c-54 0-97.199-43.199-97.199-97.199s43.199-97.199 97.199-97.199 97.199 43.199 97.199 97.199-43.199 97.199-97.199 97.199z"/>
 <path d="m591.6 552h16.801v78h-16.801z"/>
 <path d="m192 579.6h16.801v40.801h-16.801z"/>
 <path d="m200.4 470.4h-8.3984v69.602c-30 3.6016-52.801 28.801-52.801 60s22.801 56.398 52.801 60v69.602h8.3984c72 0 129.6-57.602 129.6-129.6s-58.801-129.6-129.6-129.6zm-44.398 129.6c0-24 20.398-44.398 44.398-44.398s44.398 20.398 44.398 44.398-20.398 44.398-44.398 44.398-44.398-20.398-44.398-44.398zm64.801-57.602 20.398-14.398c25.199 14.398 42 42 42 70.801s-15.602 56.398-42 70.801l-20.398-14.398c24-8.3984 40.801-31.199 40.801-57.602 0-26.402-18-46.801-40.801-55.203zm-12 170.4v-44.398l31.199 21.602 4.8008-2.3984c33.602-16.801 54-50.398 54-87.602 0-37.199-20.398-70.801-54-87.602l-4.8008-2.4023-31.199 21.602v-44.398c58.801 3.6016 105.6 52.801 105.6 112.8-0.003906 59.996-46.801 109.2-105.6 112.8z"/>
</svg>
