<?xml version="1.0" encoding="UTF-8"?>
<svg width="1200pt" height="1200pt" version="1.1" viewBox="0 0 1200 1200" xmlns="http://www.w3.org/2000/svg">
 <path d="m1140 249.6h-523.2c-3.6016-6-9.6016-9.6016-16.801-9.6016s-13.199 3.6016-16.801 9.6016h-523.2v702h523.2c3.6016 6 9.6016 9.6016 16.801 9.6016s13.199-3.6016 16.801-9.6016h523.2zm-21.602 102h-510v-75.602c2.3984-1.1992 4.8008-2.3984 6-4.8008h504zm-526.8 15.598v224.4l-274.8 0.003906v-224.4zm291.6 224.4h-274.8v-224.4h274.8zm-566.4 16.797h274.8v224.4l-274.8 0.003906zm291.6 0h274.8v224.4l-274.8 0.003906zm290.4-241.2h219.6v465.6h-219.6zm-817.2-96h504c1.1992 2.3984 3.6016 3.6016 6 4.8008v75.602h-510zm219.6 96v465.6h-219.6v-465.6zm-219.6 481.2h510v75.602c-2.3984 1.1992-4.8008 2.3984-7.1992 4.8008h-504l-0.003906-80.402zm532.8 80.402c-1.1992-2.3984-3.6016-3.6016-6-4.8008v-75.602h510v80.398z"/>
</svg>
