<?xml version="1.0" encoding="UTF-8"?>
<svg width="1200pt" height="1200pt" version="1.1" viewBox="0 0 1200 1200" xmlns="http://www.w3.org/2000/svg">
 <path d="m1140 249.6h-523.2c-3.6016-6-9.6016-9.6016-16.801-9.6016s-13.199 3.6016-16.801 9.6016h-523.2v702h524.4c3.6016 6 9.6016 9.6016 16.801 9.6016s13.199-3.6016 16.801-9.6016h522zm-1058.4 680.4v-658.8h301.2v658.8zm316.8-658.8h187.2c1.1992 2.3984 3.6016 3.6016 6 4.8008l0.003906 648c-2.3984 1.1992-4.8008 2.3984-7.1992 4.8008h-186zm216 658.8c-1.1992-2.3984-3.6016-3.6016-6-4.8008v-649.2c2.3984-1.1992 4.8008-2.3984 6-4.8008h187.2v658.8zm504 0h-301.2v-658.8h301.2z"/>
</svg>
